<svg id="spaceship2" enable-background="new 0 0 300 300" height="512" viewBox="0 0 300 300" width="512" xmlns="http://www.w3.org/2000/svg"><circle cx="171.305" cy="142.096" fill="#edebdc" r="90"/><circle cx="215.341" cy="78.496" fill="#d9be6f" r="43.2"/><path d="m215.342 125.695c-26.027 0-47.201-21.174-47.201-47.199 0-26.027 21.174-47.201 47.201-47.201 26.025 0 47.199 21.174 47.199 47.201 0 26.025-21.174 47.199-47.199 47.199zm0-86.4c-21.615 0-39.201 17.586-39.201 39.201s17.586 39.199 39.201 39.199 39.199-17.584 39.199-39.199-17.584-39.201-39.199-39.201z" fill="#4c241d"/><circle cx="200.141" cy="78.496" fill="#ffec95" r="14.4"/><path d="m200.141 96.896c-10.146 0-18.4-8.254-18.4-18.4s8.254-18.4 18.4-18.4 18.4 8.254 18.4 18.4-8.254 18.4-18.4 18.4zm0-28.8c-5.734 0-10.4 4.666-10.4 10.4s4.666 10.4 10.4 10.4 10.4-4.666 10.4-10.4-4.666-10.4-10.4-10.4z" fill="#4c241d"/><circle cx="235.341" cy="87.296" fill="#ffec95" r="7.2"/><path d="m235.342 98.496c-6.176 0-11.201-5.025-11.201-11.201s5.025-11.199 11.201-11.199 11.199 5.023 11.199 11.199-5.023 11.201-11.199 11.201zm0-14.4c-1.766 0-3.201 1.436-3.201 3.199 0 1.766 1.436 3.201 3.201 3.201 1.764 0 3.199-1.436 3.199-3.201 0-1.764-1.435-3.199-3.199-3.199z" fill="#4c241d"/><path d="m229.009 37.539c-4.3-1.435-8.886-2.243-13.668-2.243-6.41 0-12.472 1.433-17.942 3.938 2.504 6.132 8.509 10.462 15.542 10.462 7.657 0 14.044-5.153 16.068-12.157z" fill="#ffec95"/><path d="m212.942 53.695c-8.48 0-16.033-5.084-19.246-12.951-.811-1.984.088-4.256 2.039-5.148 10.867-4.977 23.119-5.666 34.541-1.852 2.037.68 3.174 2.844 2.576 4.906-2.561 8.858-10.748 15.045-19.91 15.045zm-9.704-12.463c2.385 2.791 5.893 4.463 9.703 4.463 4.227 0 8.119-2.156 10.461-5.547-6.74-1.429-13.685-1.041-20.164 1.084z" fill="#4c241d"/><path d="m129.779 194.16v49.075l-46.009 21.471 6.135-55.21z" fill="#9dc1e4"/><path d="m83.77 268.705c-.822 0-1.641-.254-2.332-.75-1.176-.844-1.803-2.254-1.643-3.691l6.135-55.209c.164-1.486 1.145-2.756 2.539-3.293l39.875-15.334c1.229-.477 2.613-.314 3.699.436 1.088.746 1.736 1.979 1.736 3.297v49.074c0 1.555-.9 2.967-2.309 3.625l-46.01 21.471c-.538.251-1.114.374-1.69.374zm9.842-56.35-5.08 45.713 37.248-17.381v-40.703z" fill="#4c241d"/><path d="m105.241 169.622h-49.076l-21.47 46.008 55.21-6.134z" fill="#9dc1e4"/><path d="m34.695 219.631c-1.279 0-2.494-.613-3.25-1.668-.844-1.176-.986-2.713-.375-4.023l21.471-46.01c.658-1.408 2.07-2.309 3.625-2.309h49.074c1.318 0 2.551.648 3.297 1.736.746 1.086.91 2.469.436 3.699l-15.334 39.875c-.537 1.395-1.807 2.375-3.293 2.539l-55.209 6.135c-.149.018-.295.026-.442.026zm24.018-46.01-17.381 37.248 45.713-5.08 12.371-32.168z" fill="#4c241d"/><path d="m137.178 132.833c-9.758 5.122-20.372 12.955-30.403 22.986-24.563 24.563-36.235 52.714-26.072 62.878 10.164 10.164 38.316-1.509 62.878-26.071 10.031-10.031 17.863-20.645 22.986-30.403-6.406-1.793-12.865-5.485-18.385-11.005-5.519-5.519-9.212-11.979-11.004-18.385z" fill="#fff"/><path d="m91.094 226.357c-5.498 0-10-1.613-13.219-4.832-6.135-6.135-6.439-16.932-.854-30.4 5.121-12.35 14.684-25.893 26.926-38.135 9.959-9.959 20.807-18.152 31.371-23.697 1.072-.564 2.338-.607 3.443-.131 1.109.477 1.943 1.432 2.268 2.594 1.691 6.045 5.143 11.797 9.98 16.635s10.59 8.289 16.635 9.98c1.162.324 2.117 1.158 2.594 2.268.479 1.107.432 2.373-.131 3.443-5.545 10.564-13.738 21.412-23.697 31.371-12.242 12.242-25.785 21.805-38.135 26.926-6.402 2.654-12.201 3.978-17.181 3.978zm43.867-87.711c-8.562 5.051-17.252 11.895-25.357 20-11.518 11.518-20.465 24.141-25.193 35.543-4.201 10.135-4.521 18.037-.879 21.68s11.545 3.324 21.68-.879c11.402-4.729 24.025-13.676 35.543-25.193 8.105-8.105 14.949-16.795 20-25.357-5.602-2.311-10.855-5.848-15.4-10.393s-8.083-9.799-10.394-15.401z" fill="#4c241d"/><circle cx="126.712" cy="172.689" fill="#c1dbdc" r="13.013"/><path d="m126.713 189.693c-4.357 0-8.715-1.658-12.031-4.975-6.635-6.633-6.635-17.428 0-24.061 6.631-6.631 17.426-6.635 24.061 0 6.635 6.633 6.635 17.428 0 24.061-3.317 3.317-7.674 4.975-12.03 4.975zm-.002-26.013c-2.307 0-4.615.877-6.373 2.635-3.514 3.516-3.514 9.232 0 12.748 3.518 3.516 9.234 3.516 12.748 0s3.514-9.232 0-12.748c-1.758-1.758-4.066-2.635-6.375-2.635z" fill="#4c241d"/><path d="m60.766 242.635c-1.023 0-2.047-.391-2.828-1.172-1.562-1.562-1.562-4.094 0-5.656l27.605-27.605c1.562-1.562 4.094-1.562 5.656 0s1.562 4.094 0 5.656l-27.605 27.605c-.781.781-1.805 1.172-2.828 1.172z" fill="#4c241d"/><path d="m169.653 129.748c-6.013-6.013-18.338-4.335-32.475 3.086 1.793 6.406 5.485 12.865 11.005 18.385 5.519 5.519 11.979 9.212 18.385 11.005 7.42-14.138 9.098-26.463 3.085-32.476z" fill="#fc8c29"/><g fill="#4c241d"><path d="m166.567 166.223c-.357 0-.721-.047-1.078-.148-7.365-2.061-14.328-6.221-20.135-12.027s-9.967-12.77-12.027-20.135c-.51-1.816.322-3.742 1.992-4.619 16.48-8.648 30.021-9.512 37.162-2.373 7.143 7.141 6.277 20.688-2.373 37.162-.704 1.341-2.084 2.14-3.541 2.14zm-24.502-31.358c1.893 4.898 4.945 9.525 8.945 13.525s8.627 7.053 13.525 8.945c5.393-11.414 6.303-20.746 2.289-24.76-4.015-4.009-13.347-3.098-24.759 2.29z"/><path d="m234.219 197.203c-1.023 0-2.047-.391-2.828-1.172-1.562-1.562-1.562-4.094 0-5.656l14.172-14.172c1.562-1.562 4.094-1.562 5.656 0s1.562 4.094 0 5.656l-14.172 14.172c-.781.781-1.805 1.172-2.828 1.172z"/><path d="m248.391 197.203c-1.023 0-2.047-.391-2.828-1.172l-14.172-14.172c-1.562-1.562-1.562-4.094 0-5.656s4.094-1.562 5.656 0l14.172 14.172c1.562 1.562 1.562 4.094 0 5.656-.781.781-1.805 1.172-2.828 1.172z"/><path d="m162.219 265.203c-1.023 0-2.047-.391-2.828-1.172-1.562-1.562-1.562-4.094 0-5.656l14.172-14.172c1.562-1.562 4.094-1.562 5.656 0s1.562 4.094 0 5.656l-14.172 14.172c-.781.781-1.805 1.172-2.828 1.172z"/><path d="m176.391 265.203c-1.023 0-2.047-.391-2.828-1.172l-14.172-14.172c-1.562-1.562-1.562-4.094 0-5.656s4.094-1.562 5.656 0l14.172 14.172c1.562 1.562 1.562 4.094 0 5.656-.781.781-1.805 1.172-2.828 1.172z"/><path d="m98.219 61.203c-1.023 0-2.047-.391-2.828-1.172-1.562-1.562-1.562-4.094 0-5.656l14.172-14.172c1.562-1.562 4.094-1.562 5.656 0s1.562 4.094 0 5.656l-14.172 14.172c-.781.781-1.805 1.172-2.828 1.172z"/><path d="m112.391 61.203c-1.023 0-2.047-.391-2.828-1.172l-14.172-14.172c-1.562-1.562-1.562-4.094 0-5.656s4.094-1.562 5.656 0l14.172 14.172c1.562 1.562 1.562 4.094 0 5.656-.781.781-1.805 1.172-2.828 1.172z"/><circle cx="193.305" cy="200.096" r="4"/><circle cx="253.305" cy="252.096" r="4"/><circle cx="265.305" cy="136.096" r="4"/><circle cx="49.305" cy="136.096" r="4"/><circle cx="97.305" cy="124.096" r="4"/><circle cx="49.305" cy="60.096" r="4"/></g></svg>